<svg width="19" height="19" viewBox="0 0 40 44" fill="none" xmlns="http://www.w3.org/2000/svg">
<path d="M2.70337 32.3496C2.6719 32.3078 2.70875 32.3137 2.7158 32.3651C3.51569 33.3029 16.8235 39.7936 23.1287 35.3291C29.7848 30.6164 23.6451 28.3451 12.9726 28.6857C2.30014 29.0264 2.47224 27.2094 0.923 20.7364C-1.25738 12.4463 0.750878 8.16403 3.56248 8.05048C6.0048 7.95182 31.8271 8.02456 38.5682 8.04537C39.4298 8.04803 40.0866 8.7763 39.9907 9.60779L38.766 20.2286C38.6168 21.5221 36.743 22.0473 35.7289 21.1961C32.6355 18.599 27.6189 16.2114 20.7763 16.8753C9.07083 18.0109 14.2923 22.5533 22.4976 22.0991C30.7028 21.6448 38.0473 24.3704 37.1866 33.9664C36.326 43.5624 31.6782 43.5624 29.7848 43.5624H5.51943C4.79336 43.5624 4.17946 43.0404 4.08366 42.3416L2.7158 32.3651C2.71125 32.3597 2.70711 32.3547 2.70337 32.3496Z" fill="url(#paint0_linear_506_29)"/>
<mask id="mask0_506_29" style="mask-type:alpha" maskUnits="userSpaceOnUse" x="0" y="10" width="40" height="33">
<path d="M2.70464 32.137C2.67315 32.0964 2.71001 32.1022 2.71705 32.152C3.51733 33.0606 16.8313 39.3488 23.1395 35.0236C29.7987 30.4577 23.6561 28.2573 12.9787 28.5873C2.30121 28.9174 2.4734 27.1571 0.923432 20.886C-1.25797 12.8544 0.751229 10.1589 3.56414 10.0489C6.00546 9.95342 31.7967 10.0237 38.5684 10.0439C39.4373 10.0465 40.0953 10.7624 39.9886 11.5731L38.8201 20.4614C38.6566 21.7052 36.8012 22.1958 35.7962 21.3725C32.7055 18.8405 27.6692 16.4985 20.786 17.1453C9.07507 18.2454 14.299 22.6462 22.5081 22.2061C30.7171 21.7661 38.0651 24.4066 37.204 33.7034C36.3429 43 31.693 43 29.7987 43H5.52201C4.7956 43 4.18141 42.4944 4.08557 41.8174L2.71705 32.152C2.71252 32.1468 2.70837 32.1418 2.70464 32.137Z" fill="url(#paint1_linear_506_29)"/>
</mask>
<g mask="url(#mask0_506_29)">
<path d="M21.7562 11C8.98769 11 -1.5883 20.9145 -3.44682 38.3843C-3.77557 41.4746 -1.14255 44.0007 2.05728 44.0007H41.4551C44.6549 44.0007 47.2879 41.4746 46.9592 38.3844C45.1007 20.9145 34.5247 11 21.7562 11Z" fill="url(#paint2_linear_506_29)"/>
</g>
<path fill-rule="evenodd" clip-rule="evenodd" d="M10.7151 7.93228C11.2884 8.13429 11.9305 7.86907 12.1494 7.33989C12.584 6.28898 13.219 5.33926 14.014 4.543C14.8088 3.74693 15.7474 3.12034 16.7737 2.69458C17.7996 2.26895 18.8956 2.05121 20 2.05121C21.1043 2.05121 22.2004 2.26895 23.2263 2.69458C24.2525 3.12034 25.1913 3.74693 25.986 4.543C26.781 5.33926 27.416 6.28898 27.8506 7.33989C28.0695 7.86907 28.7117 8.13429 29.2849 7.93228C29.8581 7.73027 30.1454 7.13751 29.9267 6.60833C29.3942 5.32104 28.6118 4.14623 27.6201 3.15289C26.6282 2.15938 25.4455 1.36641 24.1372 0.82364C22.8287 0.280756 21.4225 0 20 0C18.5775 0 17.1714 0.280756 15.8628 0.82364C14.5544 1.36641 13.3719 2.15938 12.3799 3.15289C11.3881 4.14623 10.6058 5.32104 10.0734 6.60833C9.85451 7.13752 10.1418 7.73027 10.7151 7.93228Z" fill="url(#paint3_linear_506_29)"/>
<defs>
<linearGradient id="paint0_linear_506_29" x1="20.0852" y1="9.50004" x2="20.2672" y2="39.3438" gradientUnits="userSpaceOnUse">
<stop stop-color="white" stop-opacity="0.2"/>
<stop offset="1" stop-color="white" stop-opacity="0"/>
</linearGradient>
<linearGradient id="paint1_linear_506_29" x1="20.0946" y1="10" x2="20.0946" y2="33.2651" gradientUnits="userSpaceOnUse">
<stop stop-color="#B605F4"/>
<stop offset="1" stop-color="#283DDE"/>
</linearGradient>
<linearGradient id="paint2_linear_506_29" x1="32.1296" y1="13.9471" x2="1.34557" y2="55.6011" gradientUnits="userSpaceOnUse">
<stop stop-color="white" stop-opacity="0.7"/>
<stop offset="1" stop-color="white" stop-opacity="0.4"/>
</linearGradient>
<linearGradient id="paint3_linear_506_29" x1="19.9216" y1="7.67646" x2="19.9281" y2="2.48352" gradientUnits="userSpaceOnUse">
<stop offset="0.05" stop-color="white" stop-opacity="0.2"/>
<stop offset="1" stop-color="white" stop-opacity="0.7"/>
</linearGradient>
</defs>
</svg>
