<svg width="20" height="22" viewBox="0 0 40 44" fill="none" xmlns="http://www.w3.org/2000/svg">
<g clip-path="url(#clip0_506_28)">
<path d="M2.70337 32.7873C2.6719 32.7455 2.70875 32.7514 2.7158 32.8027C3.51569 33.7406 16.8235 40.2313 23.1287 35.7668C29.7848 31.054 23.6451 28.7828 12.9726 29.1234C2.30014 29.4641 2.47224 27.647 0.923 21.1741C-1.25738 12.884 0.750878 8.60172 3.56248 8.48816C6.0048 8.38951 31.8271 8.46224 38.5682 8.48305C39.4298 8.48571 40.0866 9.21398 39.9907 10.0455L38.766 20.6663C38.6168 21.9598 36.743 22.485 35.7289 21.6338C32.6355 19.0367 27.6189 16.6491 20.7763 17.313C9.07083 18.4486 14.2923 22.991 22.4976 22.5368C30.7028 22.0825 38.0473 24.808 37.1866 34.4041C36.326 44.0001 31.6782 44.0001 29.7848 44.0001H5.51943C4.79336 44.0001 4.17946 43.4781 4.08366 42.7793L2.7158 32.8027C2.71125 32.7974 2.70711 32.7923 2.70337 32.7873Z" fill="url(#paint0_linear_506_28)"/>
<mask id="mask0_506_28" style="mask-type:alpha" maskUnits="userSpaceOnUse" x="0" y="9" width="40" height="35">
<path d="M2.70337 32.6935C2.6719 32.6516 2.70875 32.6577 2.71579 32.709C3.51569 33.6469 16.8235 40.1375 23.1287 35.673C29.7848 30.9602 23.6451 28.689 12.9726 29.0296C2.30014 29.3704 2.47224 27.5533 0.923 21.0803C-1.25738 12.7903 0.750878 10.008 3.56248 9.89443C6.00265 9.79588 31.7819 9.86839 38.5503 9.88927C39.4188 9.89194 40.0766 10.6309 39.97 11.4677L38.8019 20.6421C38.6386 21.9259 36.784 22.4323 35.7795 21.5825C32.6902 18.9691 27.6563 16.5517 20.7763 17.2193C9.07083 18.3548 14.2923 22.8973 22.4976 22.443C30.7028 21.9888 38.0473 24.7143 37.1866 34.3103C36.326 43.9062 31.6782 43.9062 29.7848 43.9062H5.51943C4.79336 43.9062 4.17946 43.3844 4.08366 42.6856L2.71579 32.709C2.71125 32.7037 2.70711 32.6985 2.70337 32.6935Z" fill="url(#paint1_linear_506_28)"/>
</mask>
<g mask="url(#mask0_506_28)">
<path d="M21.7562 11.2335C8.98769 11.2335 -1.5883 21.148 -3.44682 38.6178C-3.77557 41.7081 -1.14255 44.2342 2.05728 44.2342H41.4551C44.6549 44.2342 47.2879 41.7081 46.9592 38.6179C45.1007 21.148 34.5247 11.2335 21.7562 11.2335Z" fill="url(#paint2_linear_506_28)"/>
</g>
<path fill-rule="evenodd" clip-rule="evenodd" d="M10.4911 8.78326C11.0832 9.00694 11.7464 8.71327 11.9724 8.12733C12.4213 6.96369 13.0772 5.91208 13.8983 5.03042C14.7192 4.14895 15.6887 3.45514 16.7486 2.98372C17.8083 2.51243 18.9403 2.27134 20.0809 2.27134C21.2216 2.27134 22.3537 2.51243 23.4132 2.98372C24.4732 3.45514 25.4428 4.14895 26.2636 5.03042C27.0848 5.91208 27.7406 6.96369 28.1895 8.12733C28.4156 8.71327 29.0789 9.00694 29.671 8.78326C30.263 8.55958 30.5598 7.90324 30.3338 7.3173C29.7838 5.89192 28.9757 4.59108 27.9514 3.49119C26.9269 2.39111 25.7054 1.51307 24.3542 0.912083C23.0026 0.310964 21.5502 9.15527e-05 20.0809 9.15527e-05C18.6118 9.15527e-05 17.1594 0.310964 15.8079 0.912083C14.4565 1.51307 13.2351 2.39111 12.2106 3.49119C11.1862 4.59108 10.3781 5.89192 9.82822 7.3173C9.60217 7.90325 9.89895 8.55958 10.4911 8.78326Z" fill="url(#paint3_linear_506_28)"/>
</g>
<defs>
<linearGradient id="paint0_linear_506_28" x1="20.0852" y1="9.93772" x2="20.2672" y2="39.7815" gradientUnits="userSpaceOnUse">
<stop stop-color="white" stop-opacity="0.3"/>
<stop offset="1" stop-color="white" stop-opacity="0"/>
</linearGradient>
<linearGradient id="paint1_linear_506_28" x1="20.0852" y1="9.84396" x2="20.0852" y2="33.8579" gradientUnits="userSpaceOnUse">
<stop stop-color="#B605F4"/>
<stop offset="1" stop-color="#283DDE"/>
</linearGradient>
<linearGradient id="paint2_linear_506_28" x1="32.1296" y1="14.1806" x2="1.34557" y2="55.8346" gradientUnits="userSpaceOnUse">
<stop stop-color="white" stop-opacity="0.3"/>
<stop offset="1" stop-color="white" stop-opacity="0.5"/>
</linearGradient>
<linearGradient id="paint3_linear_506_28" x1="20.0809" y1="8.85824" x2="20.0082" y2="2.74991" gradientUnits="userSpaceOnUse">
<stop stop-color="white" stop-opacity="0.02"/>
<stop offset="1" stop-color="white" stop-opacity="0.5"/>
</linearGradient>
<clipPath id="clip0_506_28">
<rect width="40" height="44" fill="white"/>
</clipPath>
</defs>
</svg>
