<svg width="19" height="19" viewBox="0 0 42 41" fill="none" xmlns="http://www.w3.org/2000/svg">
<g filter="url(#filter0_d_510_26)">
<path d="M3.70337 29.704C3.6719 29.6657 3.70875 29.6711 3.7158 29.7183C4.51569 30.5794 17.8235 36.5393 24.1287 32.4399C30.7848 28.1125 24.6451 26.027 13.9726 26.3398C3.30014 26.6526 3.47224 24.9842 1.923 19.0405C-0.257382 11.4284 1.75088 7.49632 4.56248 7.39205C7.0048 7.30147 32.8271 7.36825 39.5682 7.38736C40.4298 7.3898 41.0866 8.05852 40.9907 8.82201L39.766 18.5743C39.6168 19.762 37.743 20.2443 36.7289 19.4627C33.6355 17.0779 28.6189 14.8856 21.7763 15.4952C10.0708 16.5379 15.2923 20.7089 23.4976 20.2918C31.7028 19.8747 39.0473 22.3773 38.1866 31.1886C37.326 39.9999 32.6782 39.9999 30.7848 39.9999H6.51943C5.79336 39.9999 5.17946 39.5206 5.08366 38.879L3.7158 29.7183C3.71125 29.7133 3.70711 29.7087 3.70337 29.704Z" fill="url(#paint0_linear_510_26)"/>
<mask id="mask0_510_26" style="mask-type:alpha" maskUnits="userSpaceOnUse" x="1" y="9" width="40" height="31">
<path d="M3.70464 29.5088C3.67315 29.4715 3.71001 29.4769 3.71705 29.5226C4.51733 30.3569 17.8313 36.1309 24.1395 32.1593C30.7987 27.9668 24.6561 25.9464 13.9787 26.2494C3.30121 26.5526 3.4734 24.9361 1.92343 19.1779C-0.257969 11.8031 1.75123 9.32804 4.56414 9.22703C7.00546 9.13936 32.7967 9.20386 39.5684 9.22244C40.4373 9.22481 41.0953 9.88222 40.9886 10.6266L39.8201 18.788C39.6566 19.9301 37.8012 20.3806 36.7962 19.6246C33.7055 17.2997 28.6692 15.1492 21.786 15.7431C10.0751 16.7533 15.299 20.7942 23.5081 20.3901C31.7171 19.986 39.0651 22.4106 38.204 30.9471C37.3429 39.4835 32.693 39.4835 30.7987 39.4835H6.52201C5.7956 39.4835 5.18141 39.0192 5.08557 38.3976L3.71705 29.5226C3.71252 29.5178 3.70837 29.5132 3.70464 29.5088Z" fill="url(#paint1_linear_510_26)"/>
</mask>
<g mask="url(#mask0_510_26)">
<path d="M22.7562 10.1004C9.98769 10.1004 -0.588296 19.2041 -2.44682 35.2452C-2.77557 38.0828 -0.142555 40.4023 3.05728 40.4023H42.4551C45.6549 40.4023 48.2879 38.0828 47.9592 35.2454C46.1007 19.2041 35.5247 10.1004 22.7562 10.1004Z" fill="url(#paint2_linear_510_26)"/>
</g>
<path fill-rule="evenodd" clip-rule="evenodd" d="M11.7151 7.28351C12.2884 7.469 12.9305 7.22546 13.1494 6.73956C13.584 5.77459 14.219 4.90253 15.014 4.1714C15.8088 3.44042 16.7474 2.86507 17.7737 2.47413C18.7996 2.08331 19.8956 1.88338 21 1.88338C22.1043 1.88338 23.2004 2.08331 24.2263 2.47413C25.2525 2.86507 26.1913 3.44042 26.986 4.1714C27.781 4.90253 28.416 5.77459 28.8506 6.73956C29.0695 7.22546 29.7117 7.469 30.2849 7.28351C30.8581 7.09801 31.1454 6.55373 30.9267 6.06783C30.3942 4.88581 29.6118 3.80707 28.6201 2.89496C27.6282 1.9827 26.4455 1.25457 25.1372 0.756194C23.8287 0.257705 22.4225 -9.15527e-05 21 -9.15527e-05C19.5775 -9.15527e-05 18.1714 0.257705 16.8628 0.756194C15.5544 1.25457 14.3719 1.9827 13.3799 2.89496C12.3881 3.80707 11.6058 4.88581 11.0734 6.06783C10.8545 6.55374 11.1418 7.09801 11.7151 7.28351Z" fill="url(#paint3_linear_510_26)"/>
</g>
<defs>
<filter id="filter0_d_510_26" x="0.5" y="-9.15527e-05" width="41" height="41" filterUnits="userSpaceOnUse" color-interpolation-filters="sRGB">
<feFlood flood-opacity="0" result="BackgroundImageFix"/>
<feColorMatrix in="SourceAlpha" type="matrix" values="0 0 0 0 0 0 0 0 0 0 0 0 0 0 0 0 0 0 127 0" result="hardAlpha"/>
<feOffset dy="0.5"/>
<feGaussianBlur stdDeviation="0.25"/>
<feComposite in2="hardAlpha" operator="out"/>
<feColorMatrix type="matrix" values="0 0 0 0 0 0 0 0 0 0 0 0 0 0 0 0 0 0 0.25 0"/>
<feBlend mode="normal" in2="BackgroundImageFix" result="effect1_dropShadow_510_26"/>
<feBlend mode="normal" in="SourceGraphic" in2="effect1_dropShadow_510_26" result="shape"/>
</filter>
<linearGradient id="paint0_linear_510_26" x1="21.0852" y1="8.72307" x2="21.2387" y2="36.1264" gradientUnits="userSpaceOnUse">
<stop stop-color="#2271B1" stop-opacity="0.6"/>
<stop offset="1" stop-color="#2271B1"/>
</linearGradient>
<linearGradient id="paint1_linear_510_26" x1="21.0946" y1="9.18213" x2="21.0946" y2="30.5446" gradientUnits="userSpaceOnUse">
<stop stop-color="#B605F4"/>
<stop offset="1" stop-color="#283DDE"/>
</linearGradient>
<linearGradient id="paint2_linear_510_26" x1="33.1296" y1="12.8064" x2="5.65197" y2="53.2978" gradientUnits="userSpaceOnUse">
<stop stop-color="#2271B1"/>
<stop offset="1" stop-color="#2271B1" stop-opacity="0.4"/>
</linearGradient>
<linearGradient id="paint3_linear_510_26" x1="20.9216" y1="7.04861" x2="20.9271" y2="2.28033" gradientUnits="userSpaceOnUse">
<stop offset="0.05" stop-color="#2271B1" stop-opacity="0.6"/>
<stop offset="1" stop-color="#2271B1"/>
</linearGradient>
</defs>
</svg>
